<svg width="209" height="54" viewBox="0 0 209 54" fill="none" xmlns="http://www.w3.org/2000/svg">
<g opacity="0.7">
<path d="M85.6853 29.9275V19.7035H81.6533V17.3275H92.6333V19.7035H88.6013V29.9275H85.6853ZM96.8843 22.4035H102.95V24.6715H96.8843V22.4035ZM97.1003 27.5875H103.958V29.9275H94.2023V17.3275H103.724V19.6675H97.1003V27.5875ZM112.308 30.1435C111.336 30.1435 110.43 29.9875 109.59 29.6755C108.762 29.3515 108.042 28.8955 107.43 28.3075C106.818 27.7195 106.338 27.0295 105.99 26.2375C105.654 25.4455 105.486 24.5755 105.486 23.6275C105.486 22.6795 105.654 21.8095 105.99 21.0175C106.338 20.2255 106.818 19.5355 107.43 18.9475C108.054 18.3595 108.78 17.9095 109.608 17.5975C110.436 17.2735 111.342 17.1115 112.326 17.1115C113.418 17.1115 114.402 17.3035 115.278 17.6875C116.166 18.0595 116.91 18.6115 117.51 19.3435L115.638 21.0715C115.206 20.5795 114.726 20.2135 114.198 19.9735C113.67 19.7215 113.094 19.5955 112.47 19.5955C111.882 19.5955 111.342 19.6915 110.85 19.8835C110.358 20.0755 109.932 20.3515 109.572 20.7115C109.212 21.0715 108.93 21.4975 108.726 21.9895C108.534 22.4815 108.438 23.0275 108.438 23.6275C108.438 24.2275 108.534 24.7735 108.726 25.2655C108.93 25.7575 109.212 26.1835 109.572 26.5435C109.932 26.9035 110.358 27.1795 110.85 27.3715C111.342 27.5635 111.882 27.6595 112.47 27.6595C113.094 27.6595 113.67 27.5395 114.198 27.2995C114.726 27.0475 115.206 26.6695 115.638 26.1655L117.51 27.8935C116.91 28.6255 116.166 29.1835 115.278 29.5675C114.402 29.9515 113.412 30.1435 112.308 30.1435ZM128.12 17.3275H131.036V29.9275H128.12V17.3275ZM122.396 29.9275H119.48V17.3275H122.396V29.9275ZM128.336 24.7615H122.18V22.2955H128.336V24.7615ZM134.017 29.9275V17.3275H140.173C141.757 17.3275 142.945 17.6275 143.737 18.2275C144.541 18.8275 144.943 19.6195 144.943 20.6035C144.943 21.2635 144.781 21.8395 144.457 22.3315C144.133 22.8115 143.689 23.1835 143.125 23.4475C142.561 23.7115 141.913 23.8435 141.181 23.8435L141.523 23.1055C142.315 23.1055 143.017 23.2375 143.629 23.5015C144.241 23.7535 144.715 24.1315 145.051 24.6355C145.399 25.1395 145.573 25.7575 145.573 26.4895C145.573 27.5695 145.147 28.4155 144.295 29.0275C143.443 29.6275 142.189 29.9275 140.533 29.9275H134.017ZM136.915 27.7315H140.317C141.073 27.7315 141.643 27.6115 142.027 27.3715C142.423 27.1195 142.621 26.7235 142.621 26.1835C142.621 25.6555 142.423 25.2655 142.027 25.0135C141.643 24.7495 141.073 24.6175 140.317 24.6175H136.699V22.4935H139.813C140.521 22.4935 141.061 22.3735 141.433 22.1335C141.817 21.8815 142.009 21.5035 142.009 20.9995C142.009 20.5075 141.817 20.1415 141.433 19.9015C141.061 19.6495 140.521 19.5235 139.813 19.5235H136.915V27.7315ZM147.78 29.9275V17.3275H153.234C154.362 17.3275 155.334 17.5135 156.15 17.8855C156.966 18.2455 157.596 18.7675 158.04 19.4515C158.484 20.1355 158.706 20.9515 158.706 21.8995C158.706 22.8355 158.484 23.6455 158.04 24.3295C157.596 25.0015 156.966 25.5175 156.15 25.8775C155.334 26.2375 154.362 26.4175 153.234 26.4175H149.4L150.696 25.1395V29.9275H147.78ZM155.79 29.9275L152.64 25.3555H155.754L158.94 29.9275H155.79ZM150.696 25.4635L149.4 24.0955H153.072C153.972 24.0955 154.644 23.9035 155.088 23.5195C155.532 23.1235 155.754 22.5835 155.754 21.8995C155.754 21.2035 155.532 20.6635 155.088 20.2795C154.644 19.8955 153.972 19.7035 153.072 19.7035H149.4L150.696 18.3175V25.4635ZM159.361 29.9275L164.977 17.3275H167.857L173.491 29.9275H170.431L165.823 18.8035H166.975L162.349 29.9275H159.361ZM162.169 27.2275L162.943 25.0135H169.423L170.215 27.2275H162.169ZM174.798 29.9275V17.3275H177.21L184.644 26.3995H183.474V17.3275H186.354V29.9275H183.96L176.508 20.8555H177.678V29.9275H174.798ZM189.335 29.9275V17.3275H195.059C196.427 17.3275 197.633 17.5915 198.677 18.1195C199.721 18.6355 200.537 19.3615 201.125 20.2975C201.713 21.2335 202.007 22.3435 202.007 23.6275C202.007 24.8995 201.713 26.0095 201.125 26.9575C200.537 27.8935 199.721 28.6255 198.677 29.1535C197.633 29.6695 196.427 29.9275 195.059 29.9275H189.335ZM192.251 27.5335H194.915C195.755 27.5335 196.481 27.3775 197.093 27.0655C197.717 26.7415 198.197 26.2855 198.533 25.6975C198.881 25.1095 199.055 24.4195 199.055 23.6275C199.055 22.8235 198.881 22.1335 198.533 21.5575C198.197 20.9695 197.717 20.5195 197.093 20.2075C196.481 19.8835 195.755 19.7215 194.915 19.7215H192.251V27.5335Z" fill="#C7F0FD"/>
<path d="M83.0759 44.4524V41.8784L83.4089 42.7604L80.6369 38.1524H82.1849L84.3089 41.6894H83.4179L85.5509 38.1524H86.9819L84.2099 42.7604L84.5339 41.8784V44.4524H83.0759ZM90.3795 44.5604C89.8815 44.5604 89.4195 44.4794 88.9935 44.3174C88.5735 44.1554 88.2075 43.9274 87.8955 43.6334C87.5895 43.3394 87.3495 42.9944 87.1755 42.5984C87.0075 42.2024 86.9235 41.7704 86.9235 41.3024C86.9235 40.8344 87.0075 40.4024 87.1755 40.0064C87.3495 39.6104 87.5925 39.2654 87.9045 38.9714C88.2165 38.6774 88.5825 38.4494 89.0025 38.2874C89.4225 38.1254 89.8785 38.0444 90.3705 38.0444C90.8685 38.0444 91.3245 38.1254 91.7385 38.2874C92.1585 38.4494 92.5215 38.6774 92.8275 38.9714C93.1395 39.2654 93.3825 39.6104 93.5565 40.0064C93.7305 40.3964 93.8175 40.8284 93.8175 41.3024C93.8175 41.7704 93.7305 42.2054 93.5565 42.6074C93.3825 43.0034 93.1395 43.3484 92.8275 43.6424C92.5215 43.9304 92.1585 44.1554 91.7385 44.3174C91.3245 44.4794 90.8715 44.5604 90.3795 44.5604ZM90.3705 43.3184C90.6525 43.3184 90.9105 43.2704 91.1445 43.1744C91.3845 43.0784 91.5945 42.9404 91.7745 42.7604C91.9545 42.5804 92.0925 42.3674 92.1885 42.1214C92.2905 41.8754 92.3415 41.6024 92.3415 41.3024C92.3415 41.0024 92.2905 40.7294 92.1885 40.4834C92.0925 40.2374 91.9545 40.0244 91.7745 39.8444C91.6005 39.6644 91.3935 39.5264 91.1535 39.4304C90.9135 39.3344 90.6525 39.2864 90.3705 39.2864C90.0885 39.2864 89.8275 39.3344 89.5875 39.4304C89.3535 39.5264 89.1465 39.6644 88.9665 39.8444C88.7865 40.0244 88.6455 40.2374 88.5435 40.4834C88.4475 40.7294 88.3995 41.0024 88.3995 41.3024C88.3995 41.5964 88.4475 41.8694 88.5435 42.1214C88.6455 42.3674 88.7835 42.5804 88.9575 42.7604C89.1375 42.9404 89.3475 43.0784 89.5875 43.1744C89.8275 43.2704 90.0885 43.3184 90.3705 43.3184ZM97.7123 44.5604C96.8183 44.5604 96.1193 44.3114 95.6153 43.8134C95.1113 43.3154 94.8593 42.6044 94.8593 41.6804V38.1524H96.3173V41.6264C96.3173 42.2264 96.4403 42.6584 96.6863 42.9224C96.9323 43.1864 97.2773 43.3184 97.7213 43.3184C98.1653 43.3184 98.5103 43.1864 98.7563 42.9224C99.0023 42.6584 99.1253 42.2264 99.1253 41.6264V38.1524H100.565V41.6804C100.565 42.6044 100.313 43.3154 99.8093 43.8134C99.3053 44.3114 98.6063 44.5604 97.7123 44.5604ZM102.006 44.4524V38.1524H104.733C105.297 38.1524 105.783 38.2454 106.191 38.4314C106.599 38.6114 106.914 38.8724 107.136 39.2144C107.358 39.5564 107.469 39.9644 107.469 40.4384C107.469 40.9064 107.358 41.3114 107.136 41.6534C106.914 41.9894 106.599 42.2474 106.191 42.4274C105.783 42.6074 105.297 42.6974 104.733 42.6974H102.816L103.464 42.0584V44.4524H102.006ZM106.011 44.4524L104.436 42.1664H105.993L107.586 44.4524H106.011ZM103.464 42.2204L102.816 41.5364H104.652C105.102 41.5364 105.438 41.4404 105.66 41.2484C105.882 41.0504 105.993 40.7804 105.993 40.4384C105.993 40.0904 105.882 39.8204 105.66 39.6284C105.438 39.4364 105.102 39.3404 104.652 39.3404H102.816L103.464 38.6474V42.2204ZM112.478 44.4524V39.3404H110.462V38.1524H115.952V39.3404H113.936V44.4524H112.478ZM115.592 44.4524L118.4 38.1524H119.84L122.657 44.4524H121.127L118.823 38.8904H119.399L117.086 44.4524H115.592ZM116.996 43.1024L117.383 41.9954H120.623L121.019 43.1024H116.996ZM126.265 44.5604C125.767 44.5604 125.308 44.4824 124.888 44.3264C124.474 44.1644 124.111 43.9364 123.799 43.6424C123.493 43.3484 123.253 43.0034 123.079 42.6074C122.911 42.2114 122.827 41.7764 122.827 41.3024C122.827 40.8284 122.911 40.3934 123.079 39.9974C123.253 39.6014 123.496 39.2564 123.808 38.9624C124.12 38.6684 124.486 38.4434 124.906 38.2874C125.326 38.1254 125.788 38.0444 126.292 38.0444C126.85 38.0444 127.351 38.1374 127.795 38.3234C128.245 38.5094 128.623 38.7794 128.929 39.1334L127.993 39.9974C127.765 39.7574 127.516 39.5804 127.246 39.4664C126.976 39.3464 126.682 39.2864 126.364 39.2864C126.058 39.2864 125.779 39.3344 125.527 39.4304C125.275 39.5264 125.056 39.6644 124.87 39.8444C124.69 40.0244 124.549 40.2374 124.447 40.4834C124.351 40.7294 124.303 41.0024 124.303 41.3024C124.303 41.5964 124.351 41.8664 124.447 42.1124C124.549 42.3584 124.69 42.5744 124.87 42.7604C125.056 42.9404 125.272 43.0784 125.518 43.1744C125.77 43.2704 126.046 43.3184 126.346 43.3184C126.634 43.3184 126.913 43.2734 127.183 43.1834C127.459 43.0874 127.726 42.9284 127.984 42.7064L128.812 43.7594C128.47 44.0174 128.071 44.2154 127.615 44.3534C127.165 44.4914 126.715 44.5604 126.265 44.5604ZM127.48 43.5704V41.2034H128.812V43.7594L127.48 43.5704ZM130.166 44.4524V38.1524H131.624V43.2644H134.783V44.4524H130.166ZM135.598 44.4524V38.1524H137.056V44.4524H135.598ZM138.551 44.4524V38.1524H139.757L143.474 42.6884H142.889V38.1524H144.329V44.4524H143.132L139.406 39.9164H139.991V44.4524H138.551ZM147.161 40.6904H150.194V41.8244H147.161V40.6904ZM147.269 43.2824H150.698V44.4524H145.82V38.1524H150.581V39.3224H147.269V43.2824ZM157.448 44.5604C156.95 44.5604 156.491 44.4824 156.071 44.3264C155.657 44.1644 155.294 43.9364 154.982 43.6424C154.676 43.3484 154.436 43.0034 154.262 42.6074C154.094 42.2114 154.01 41.7764 154.01 41.3024C154.01 40.8284 154.094 40.3934 154.262 39.9974C154.436 39.6014 154.679 39.2564 154.991 38.9624C155.303 38.6684 155.669 38.4434 156.089 38.2874C156.509 38.1254 156.971 38.0444 157.475 38.0444C158.033 38.0444 158.534 38.1374 158.978 38.3234C159.428 38.5094 159.806 38.7794 160.112 39.1334L159.176 39.9974C158.948 39.7574 158.699 39.5804 158.429 39.4664C158.159 39.3464 157.865 39.2864 157.547 39.2864C157.241 39.2864 156.962 39.3344 156.71 39.4304C156.458 39.5264 156.239 39.6644 156.053 39.8444C155.873 40.0244 155.732 40.2374 155.63 40.4834C155.534 40.7294 155.486 41.0024 155.486 41.3024C155.486 41.5964 155.534 41.8664 155.63 42.1124C155.732 42.3584 155.873 42.5744 156.053 42.7604C156.239 42.9404 156.455 43.0784 156.701 43.1744C156.953 43.2704 157.229 43.3184 157.529 43.3184C157.817 43.3184 158.096 43.2734 158.366 43.1834C158.642 43.0874 158.909 42.9284 159.167 42.7064L159.995 43.7594C159.653 44.0174 159.254 44.2154 158.798 44.3534C158.348 44.4914 157.898 44.5604 157.448 44.5604ZM158.663 43.5704V41.2034H159.995V43.7594L158.663 43.5704ZM164.41 44.5604C163.912 44.5604 163.45 44.4794 163.024 44.3174C162.604 44.1554 162.238 43.9274 161.926 43.6334C161.62 43.3394 161.38 42.9944 161.206 42.5984C161.038 42.2024 160.954 41.7704 160.954 41.3024C160.954 40.8344 161.038 40.4024 161.206 40.0064C161.38 39.6104 161.623 39.2654 161.935 38.9714C162.247 38.6774 162.613 38.4494 163.033 38.2874C163.453 38.1254 163.909 38.0444 164.401 38.0444C164.899 38.0444 165.355 38.1254 165.769 38.2874C166.189 38.4494 166.552 38.6774 166.858 38.9714C167.17 39.2654 167.413 39.6104 167.587 40.0064C167.761 40.3964 167.848 40.8284 167.848 41.3024C167.848 41.7704 167.761 42.2054 167.587 42.6074C167.413 43.0034 167.17 43.3484 166.858 43.6424C166.552 43.9304 166.189 44.1554 165.769 44.3174C165.355 44.4794 164.902 44.5604 164.41 44.5604ZM164.401 43.3184C164.683 43.3184 164.941 43.2704 165.175 43.1744C165.415 43.0784 165.625 42.9404 165.805 42.7604C165.985 42.5804 166.123 42.3674 166.219 42.1214C166.321 41.8754 166.372 41.6024 166.372 41.3024C166.372 41.0024 166.321 40.7294 166.219 40.4834C166.123 40.2374 165.985 40.0244 165.805 39.8444C165.631 39.6644 165.424 39.5264 165.184 39.4304C164.944 39.3344 164.683 39.2864 164.401 39.2864C164.119 39.2864 163.858 39.3344 163.618 39.4304C163.384 39.5264 163.177 39.6644 162.997 39.8444C162.817 40.0244 162.676 40.2374 162.574 40.4834C162.478 40.7294 162.43 41.0024 162.43 41.3024C162.43 41.5964 162.478 41.8694 162.574 42.1214C162.676 42.3674 162.814 42.5804 162.988 42.7604C163.168 42.9404 163.378 43.0784 163.618 43.1744C163.858 43.2704 164.119 43.3184 164.401 43.3184ZM170.285 40.6904H173.318V41.8244H170.285V40.6904ZM170.393 43.2824H173.822V44.4524H168.944V38.1524H173.705V39.3224H170.393V43.2824ZM177.052 44.5604C176.548 44.5604 176.065 44.4944 175.603 44.3624C175.141 44.2244 174.769 44.0474 174.487 43.8314L174.982 42.7334C175.252 42.9254 175.57 43.0844 175.936 43.2104C176.308 43.3304 176.683 43.3904 177.061 43.3904C177.349 43.3904 177.58 43.3634 177.754 43.3094C177.934 43.2494 178.066 43.1684 178.15 43.0664C178.234 42.9644 178.276 42.8474 178.276 42.7154C178.276 42.5474 178.21 42.4154 178.078 42.3194C177.946 42.2174 177.772 42.1364 177.556 42.0764C177.34 42.0104 177.1 41.9504 176.836 41.8964C176.578 41.8364 176.317 41.7644 176.053 41.6804C175.795 41.5964 175.558 41.4884 175.342 41.3564C175.126 41.2244 174.949 41.0504 174.811 40.8344C174.679 40.6184 174.613 40.3424 174.613 40.0064C174.613 39.6464 174.709 39.3194 174.901 39.0254C175.099 38.7254 175.393 38.4884 175.783 38.3144C176.179 38.1344 176.674 38.0444 177.268 38.0444C177.664 38.0444 178.054 38.0924 178.438 38.1884C178.822 38.2784 179.161 38.4164 179.455 38.6024L179.005 39.7094C178.711 39.5414 178.417 39.4184 178.123 39.3404C177.829 39.2564 177.541 39.2144 177.259 39.2144C176.977 39.2144 176.746 39.2474 176.566 39.3134C176.386 39.3794 176.257 39.4664 176.179 39.5744C176.101 39.6764 176.062 39.7964 176.062 39.9344C176.062 40.0964 176.128 40.2284 176.26 40.3304C176.392 40.4264 176.566 40.5044 176.782 40.5644C176.998 40.6244 177.235 40.6844 177.493 40.7444C177.757 40.8044 178.018 40.8734 178.276 40.9514C178.54 41.0294 178.78 41.1344 178.996 41.2664C179.212 41.3984 179.386 41.5724 179.518 41.7884C179.656 42.0044 179.725 42.2774 179.725 42.6074C179.725 42.9614 179.626 43.2854 179.428 43.5794C179.23 43.8734 178.933 44.1104 178.537 44.2904C178.147 44.4704 177.652 44.5604 177.052 44.5604ZM187.59 38.1524H189.048V44.4524H187.59V38.1524ZM184.728 44.4524H183.27V38.1524H184.728V44.4524ZM187.698 41.8694H184.62V40.6364H187.698V41.8694ZM191.879 40.6904H194.912V41.8244H191.879V40.6904ZM191.987 43.2824H195.416V44.4524H190.538V38.1524H195.299V39.3224H191.987V43.2824ZM196.576 44.4524V38.1524H199.303C199.867 38.1524 200.353 38.2454 200.761 38.4314C201.169 38.6114 201.484 38.8724 201.706 39.2144C201.928 39.5564 202.039 39.9644 202.039 40.4384C202.039 40.9064 201.928 41.3114 201.706 41.6534C201.484 41.9894 201.169 42.2474 200.761 42.4274C200.353 42.6074 199.867 42.6974 199.303 42.6974H197.386L198.034 42.0584V44.4524H196.576ZM200.581 44.4524L199.006 42.1664H200.563L202.156 44.4524H200.581ZM198.034 42.2204L197.386 41.5364H199.222C199.672 41.5364 200.008 41.4404 200.23 41.2484C200.452 41.0504 200.563 40.7804 200.563 40.4384C200.563 40.0904 200.452 39.8204 200.23 39.6284C200.008 39.4364 199.672 39.3404 199.222 39.3404H197.386L198.034 38.6474V42.2204ZM204.536 40.6904H207.569V41.8244H204.536V40.6904ZM204.644 43.2824H208.073V44.4524H203.195V38.1524H207.956V39.3224H204.644V43.2824Z" fill="#C7F0FD"/>
</g>
<path d="M41.8683 0H21.6582L0.762939 53.9955H20.9731L41.8683 0Z" fill="#C7F0FD"/>
<path d="M43.7174 4.80811L33.578 30.9183L42.5527 53.9958H62.7628L43.7174 4.80811Z" fill="#C7F0FD"/>
<path d="M38.9221 53.9955H29.3308L36.4557 46.377L38.9221 53.9955Z" fill="#C7F0FD"/>
</svg>
