<svg width="209" height="54" viewBox="0 0 209 54" fill="none" xmlns="http://www.w3.org/2000/svg">
<g opacity="0.7">
<path d="M85.8053 30.0322V19.8082H81.7733V17.4322H92.7533V19.8082H88.7213V30.0322H85.8053ZM97.0043 22.5082H103.07V24.7762H97.0043V22.5082ZM97.2203 27.6922H104.078V30.0322H94.3223V17.4322H103.844V19.7722H97.2203V27.6922ZM112.428 30.2482C111.456 30.2482 110.55 30.0922 109.71 29.7802C108.882 29.4562 108.162 29.0002 107.55 28.4122C106.938 27.8242 106.458 27.1342 106.11 26.3422C105.774 25.5502 105.606 24.6802 105.606 23.7322C105.606 22.7842 105.774 21.9142 106.11 21.1222C106.458 20.3302 106.938 19.6402 107.55 19.0522C108.174 18.4642 108.9 18.0142 109.728 17.7022C110.556 17.3782 111.462 17.2162 112.446 17.2162C113.538 17.2162 114.522 17.4082 115.398 17.7922C116.286 18.1642 117.03 18.7162 117.63 19.4482L115.758 21.1762C115.326 20.6842 114.846 20.3182 114.318 20.0782C113.79 19.8262 113.214 19.7002 112.59 19.7002C112.002 19.7002 111.462 19.7962 110.97 19.9882C110.478 20.1802 110.052 20.4562 109.692 20.8162C109.332 21.1762 109.05 21.6022 108.846 22.0942C108.654 22.5862 108.558 23.1322 108.558 23.7322C108.558 24.3322 108.654 24.8782 108.846 25.3702C109.05 25.8622 109.332 26.2882 109.692 26.6482C110.052 27.0082 110.478 27.2842 110.97 27.4762C111.462 27.6682 112.002 27.7642 112.59 27.7642C113.214 27.7642 113.79 27.6442 114.318 27.4042C114.846 27.1522 115.326 26.7742 115.758 26.2702L117.63 27.9982C117.03 28.7302 116.286 29.2882 115.398 29.6722C114.522 30.0562 113.532 30.2482 112.428 30.2482ZM128.24 17.4322H131.156V30.0322H128.24V17.4322ZM122.516 30.0322H119.6V17.4322H122.516V30.0322ZM128.456 24.8662H122.3V22.4002H128.456V24.8662ZM134.137 30.0322V17.4322H140.293C141.877 17.4322 143.065 17.7322 143.857 18.3322C144.661 18.9322 145.063 19.7242 145.063 20.7082C145.063 21.3682 144.901 21.9442 144.577 22.4362C144.253 22.9162 143.809 23.2882 143.245 23.5522C142.681 23.8162 142.033 23.9482 141.301 23.9482L141.643 23.2102C142.435 23.2102 143.137 23.3422 143.749 23.6062C144.361 23.8582 144.835 24.2362 145.171 24.7402C145.519 25.2442 145.693 25.8622 145.693 26.5942C145.693 27.6742 145.267 28.5202 144.415 29.1322C143.563 29.7322 142.309 30.0322 140.653 30.0322H134.137ZM137.035 27.8362H140.437C141.193 27.8362 141.763 27.7162 142.147 27.4762C142.543 27.2242 142.741 26.8282 142.741 26.2882C142.741 25.7602 142.543 25.3702 142.147 25.1182C141.763 24.8542 141.193 24.7222 140.437 24.7222H136.819V22.5982H139.933C140.641 22.5982 141.181 22.4782 141.553 22.2382C141.937 21.9862 142.129 21.6082 142.129 21.1042C142.129 20.6122 141.937 20.2462 141.553 20.0062C141.181 19.7542 140.641 19.6282 139.933 19.6282H137.035V27.8362ZM147.9 30.0322V17.4322H153.354C154.482 17.4322 155.454 17.6182 156.27 17.9902C157.086 18.3502 157.716 18.8722 158.16 19.5562C158.604 20.2402 158.826 21.0562 158.826 22.0042C158.826 22.9402 158.604 23.7502 158.16 24.4342C157.716 25.1062 157.086 25.6222 156.27 25.9822C155.454 26.3422 154.482 26.5222 153.354 26.5222H149.52L150.816 25.2442V30.0322H147.9ZM155.91 30.0322L152.76 25.4602H155.874L159.06 30.0322H155.91ZM150.816 25.5682L149.52 24.2002H153.192C154.092 24.2002 154.764 24.0082 155.208 23.6242C155.652 23.2282 155.874 22.6882 155.874 22.0042C155.874 21.3082 155.652 20.7682 155.208 20.3842C154.764 20.0002 154.092 19.8082 153.192 19.8082H149.52L150.816 18.4222V25.5682ZM159.481 30.0322L165.097 17.4322H167.977L173.611 30.0322H170.551L165.943 18.9082H167.095L162.469 30.0322H159.481ZM162.289 27.3322L163.063 25.1182H169.543L170.335 27.3322H162.289ZM174.918 30.0322V17.4322H177.33L184.764 26.5042H183.594V17.4322H186.474V30.0322H184.08L176.628 20.9602H177.798V30.0322H174.918ZM189.455 30.0322V17.4322H195.179C196.547 17.4322 197.753 17.6962 198.797 18.2242C199.841 18.7402 200.657 19.4662 201.245 20.4022C201.833 21.3382 202.127 22.4482 202.127 23.7322C202.127 25.0042 201.833 26.1142 201.245 27.0622C200.657 27.9982 199.841 28.7302 198.797 29.2582C197.753 29.7742 196.547 30.0322 195.179 30.0322H189.455ZM192.371 27.6382H195.035C195.875 27.6382 196.601 27.4822 197.213 27.1702C197.837 26.8462 198.317 26.3902 198.653 25.8022C199.001 25.2142 199.175 24.5242 199.175 23.7322C199.175 22.9282 199.001 22.2382 198.653 21.6622C198.317 21.0742 197.837 20.6242 197.213 20.3122C196.601 19.9882 195.875 19.8262 195.035 19.8262H192.371V27.6382Z" fill="#C7F0FD"/>
<path d="M83.196 44.5571V41.9831L83.529 42.8651L80.757 38.2571H82.305L84.429 41.7941H83.538L85.671 38.2571H87.102L84.33 42.8651L84.654 41.9831V44.5571H83.196ZM90.4995 44.6651C90.0015 44.6651 89.5395 44.5841 89.1135 44.4221C88.6935 44.2601 88.3275 44.0321 88.0155 43.7381C87.7095 43.4441 87.4695 43.0991 87.2955 42.7031C87.1275 42.3071 87.0435 41.8751 87.0435 41.4071C87.0435 40.9391 87.1275 40.5071 87.2955 40.1111C87.4695 39.7151 87.7125 39.3701 88.0245 39.0761C88.3365 38.7821 88.7025 38.5541 89.1225 38.3921C89.5425 38.2301 89.9985 38.1491 90.4905 38.1491C90.9885 38.1491 91.4445 38.2301 91.8585 38.3921C92.2785 38.5541 92.6415 38.7821 92.9475 39.0761C93.2595 39.3701 93.5025 39.7151 93.6765 40.1111C93.8505 40.5011 93.9375 40.9331 93.9375 41.4071C93.9375 41.8751 93.8505 42.3101 93.6765 42.7121C93.5025 43.1081 93.2595 43.4531 92.9475 43.7471C92.6415 44.0351 92.2785 44.2601 91.8585 44.4221C91.4445 44.5841 90.9915 44.6651 90.4995 44.6651ZM90.4905 43.4231C90.7725 43.4231 91.0305 43.3751 91.2645 43.2791C91.5045 43.1831 91.7145 43.0451 91.8945 42.8651C92.0745 42.6851 92.2125 42.4721 92.3085 42.2261C92.4105 41.9801 92.4615 41.7071 92.4615 41.4071C92.4615 41.1071 92.4105 40.8341 92.3085 40.5881C92.2125 40.3421 92.0745 40.1291 91.8945 39.9491C91.7205 39.7691 91.5135 39.6311 91.2735 39.5351C91.0335 39.4391 90.7725 39.3911 90.4905 39.3911C90.2085 39.3911 89.9475 39.4391 89.7075 39.5351C89.4735 39.6311 89.2665 39.7691 89.0865 39.9491C88.9065 40.1291 88.7655 40.3421 88.6635 40.5881C88.5675 40.8341 88.5195 41.1071 88.5195 41.4071C88.5195 41.7011 88.5675 41.9741 88.6635 42.2261C88.7655 42.4721 88.9035 42.6851 89.0775 42.8651C89.2575 43.0451 89.4675 43.1831 89.7075 43.2791C89.9475 43.3751 90.2085 43.4231 90.4905 43.4231ZM97.8323 44.6651C96.9383 44.6651 96.2393 44.4161 95.7353 43.9181C95.2313 43.4201 94.9793 42.7091 94.9793 41.7851V38.2571H96.4373V41.7311C96.4373 42.3311 96.5603 42.7631 96.8063 43.0271C97.0523 43.2911 97.3973 43.4231 97.8413 43.4231C98.2853 43.4231 98.6303 43.2911 98.8763 43.0271C99.1223 42.7631 99.2453 42.3311 99.2453 41.7311V38.2571H100.685V41.7851C100.685 42.7091 100.433 43.4201 99.9293 43.9181C99.4253 44.4161 98.7263 44.6651 97.8323 44.6651ZM102.126 44.5571V38.2571H104.853C105.417 38.2571 105.903 38.3501 106.311 38.5361C106.719 38.7161 107.034 38.9771 107.256 39.3191C107.478 39.6611 107.589 40.0691 107.589 40.5431C107.589 41.0111 107.478 41.4161 107.256 41.7581C107.034 42.0941 106.719 42.3521 106.311 42.5321C105.903 42.7121 105.417 42.8021 104.853 42.8021H102.936L103.584 42.1631V44.5571H102.126ZM106.131 44.5571L104.556 42.2711H106.113L107.706 44.5571H106.131ZM103.584 42.3251L102.936 41.6411H104.772C105.222 41.6411 105.558 41.5451 105.78 41.3531C106.002 41.1551 106.113 40.8851 106.113 40.5431C106.113 40.1951 106.002 39.9251 105.78 39.7331C105.558 39.5411 105.222 39.4451 104.772 39.4451H102.936L103.584 38.7521V42.3251ZM112.598 44.5571V39.4451H110.582V38.2571H116.072V39.4451H114.056V44.5571H112.598ZM115.712 44.5571L118.52 38.2571H119.96L122.777 44.5571H121.247L118.943 38.9951H119.519L117.206 44.5571H115.712ZM117.116 43.2071L117.503 42.1001H120.743L121.139 43.2071H117.116ZM126.385 44.6651C125.887 44.6651 125.428 44.5871 125.008 44.4311C124.594 44.2691 124.231 44.0411 123.919 43.7471C123.613 43.4531 123.373 43.1081 123.199 42.7121C123.031 42.3161 122.947 41.8811 122.947 41.4071C122.947 40.9331 123.031 40.4981 123.199 40.1021C123.373 39.7061 123.616 39.3611 123.928 39.0671C124.24 38.7731 124.606 38.5481 125.026 38.3921C125.446 38.2301 125.908 38.1491 126.412 38.1491C126.97 38.1491 127.471 38.2421 127.915 38.4281C128.365 38.6141 128.743 38.8841 129.049 39.2381L128.113 40.1021C127.885 39.8621 127.636 39.6851 127.366 39.5711C127.096 39.4511 126.802 39.3911 126.484 39.3911C126.178 39.3911 125.899 39.4391 125.647 39.5351C125.395 39.6311 125.176 39.7691 124.99 39.9491C124.81 40.1291 124.669 40.3421 124.567 40.5881C124.471 40.8341 124.423 41.1071 124.423 41.4071C124.423 41.7011 124.471 41.9711 124.567 42.2171C124.669 42.4631 124.81 42.6791 124.99 42.8651C125.176 43.0451 125.392 43.1831 125.638 43.2791C125.89 43.3751 126.166 43.4231 126.466 43.4231C126.754 43.4231 127.033 43.3781 127.303 43.2881C127.579 43.1921 127.846 43.0331 128.104 42.8111L128.932 43.8641C128.59 44.1221 128.191 44.3201 127.735 44.4581C127.285 44.5961 126.835 44.6651 126.385 44.6651ZM127.6 43.6751V41.3081H128.932V43.8641L127.6 43.6751ZM130.286 44.5571V38.2571H131.744V43.3691H134.903V44.5571H130.286ZM135.718 44.5571V38.2571H137.176V44.5571H135.718ZM138.671 44.5571V38.2571H139.877L143.594 42.7931H143.009V38.2571H144.449V44.5571H143.252L139.526 40.0211H140.111V44.5571H138.671ZM147.281 40.7951H150.314V41.9291H147.281V40.7951ZM147.389 43.3871H150.818V44.5571H145.94V38.2571H150.701V39.4271H147.389V43.3871ZM157.568 44.6651C157.07 44.6651 156.611 44.5871 156.191 44.4311C155.777 44.2691 155.414 44.0411 155.102 43.7471C154.796 43.4531 154.556 43.1081 154.382 42.7121C154.214 42.3161 154.13 41.8811 154.13 41.4071C154.13 40.9331 154.214 40.4981 154.382 40.1021C154.556 39.7061 154.799 39.3611 155.111 39.0671C155.423 38.7731 155.789 38.5481 156.209 38.3921C156.629 38.2301 157.091 38.1491 157.595 38.1491C158.153 38.1491 158.654 38.2421 159.098 38.4281C159.548 38.6141 159.926 38.8841 160.232 39.2381L159.296 40.1021C159.068 39.8621 158.819 39.6851 158.549 39.5711C158.279 39.4511 157.985 39.3911 157.667 39.3911C157.361 39.3911 157.082 39.4391 156.83 39.5351C156.578 39.6311 156.359 39.7691 156.173 39.9491C155.993 40.1291 155.852 40.3421 155.75 40.5881C155.654 40.8341 155.606 41.1071 155.606 41.4071C155.606 41.7011 155.654 41.9711 155.75 42.2171C155.852 42.4631 155.993 42.6791 156.173 42.8651C156.359 43.0451 156.575 43.1831 156.821 43.2791C157.073 43.3751 157.349 43.4231 157.649 43.4231C157.937 43.4231 158.216 43.3781 158.486 43.2881C158.762 43.1921 159.029 43.0331 159.287 42.8111L160.115 43.8641C159.773 44.1221 159.374 44.3201 158.918 44.4581C158.468 44.5961 158.018 44.6651 157.568 44.6651ZM158.783 43.6751V41.3081H160.115V43.8641L158.783 43.6751ZM164.53 44.6651C164.032 44.6651 163.57 44.5841 163.144 44.4221C162.724 44.2601 162.358 44.0321 162.046 43.7381C161.74 43.4441 161.5 43.0991 161.326 42.7031C161.158 42.3071 161.074 41.8751 161.074 41.4071C161.074 40.9391 161.158 40.5071 161.326 40.1111C161.5 39.7151 161.743 39.3701 162.055 39.0761C162.367 38.7821 162.733 38.5541 163.153 38.3921C163.573 38.2301 164.029 38.1491 164.521 38.1491C165.019 38.1491 165.475 38.2301 165.889 38.3921C166.309 38.5541 166.672 38.7821 166.978 39.0761C167.29 39.3701 167.533 39.7151 167.707 40.1111C167.881 40.5011 167.968 40.9331 167.968 41.4071C167.968 41.8751 167.881 42.3101 167.707 42.7121C167.533 43.1081 167.29 43.4531 166.978 43.7471C166.672 44.0351 166.309 44.2601 165.889 44.4221C165.475 44.5841 165.022 44.6651 164.53 44.6651ZM164.521 43.4231C164.803 43.4231 165.061 43.3751 165.295 43.2791C165.535 43.1831 165.745 43.0451 165.925 42.8651C166.105 42.6851 166.243 42.4721 166.339 42.2261C166.441 41.9801 166.492 41.7071 166.492 41.4071C166.492 41.1071 166.441 40.8341 166.339 40.5881C166.243 40.3421 166.105 40.1291 165.925 39.9491C165.751 39.7691 165.544 39.6311 165.304 39.5351C165.064 39.4391 164.803 39.3911 164.521 39.3911C164.239 39.3911 163.978 39.4391 163.738 39.5351C163.504 39.6311 163.297 39.7691 163.117 39.9491C162.937 40.1291 162.796 40.3421 162.694 40.5881C162.598 40.8341 162.55 41.1071 162.55 41.4071C162.55 41.7011 162.598 41.9741 162.694 42.2261C162.796 42.4721 162.934 42.6851 163.108 42.8651C163.288 43.0451 163.498 43.1831 163.738 43.2791C163.978 43.3751 164.239 43.4231 164.521 43.4231ZM170.405 40.7951H173.438V41.9291H170.405V40.7951ZM170.513 43.3871H173.942V44.5571H169.064V38.2571H173.825V39.4271H170.513V43.3871ZM177.172 44.6651C176.668 44.6651 176.185 44.5991 175.723 44.4671C175.261 44.3291 174.889 44.1521 174.607 43.9361L175.102 42.8381C175.372 43.0301 175.69 43.1891 176.056 43.3151C176.428 43.4351 176.803 43.4951 177.181 43.4951C177.469 43.4951 177.7 43.4681 177.874 43.4141C178.054 43.3541 178.186 43.2731 178.27 43.1711C178.354 43.0691 178.396 42.9521 178.396 42.8201C178.396 42.6521 178.33 42.5201 178.198 42.4241C178.066 42.3221 177.892 42.2411 177.676 42.1811C177.46 42.1151 177.22 42.0551 176.956 42.0011C176.698 41.9411 176.437 41.8691 176.173 41.7851C175.915 41.7011 175.678 41.5931 175.462 41.4611C175.246 41.3291 175.069 41.1551 174.931 40.9391C174.799 40.7231 174.733 40.4471 174.733 40.1111C174.733 39.7511 174.829 39.4241 175.021 39.1301C175.219 38.8301 175.513 38.5931 175.903 38.4191C176.299 38.2391 176.794 38.1491 177.388 38.1491C177.784 38.1491 178.174 38.1971 178.558 38.2931C178.942 38.3831 179.281 38.5211 179.575 38.7071L179.125 39.8141C178.831 39.6461 178.537 39.5231 178.243 39.4451C177.949 39.3611 177.661 39.3191 177.379 39.3191C177.097 39.3191 176.866 39.3521 176.686 39.4181C176.506 39.4841 176.377 39.5711 176.299 39.6791C176.221 39.7811 176.182 39.9011 176.182 40.0391C176.182 40.2011 176.248 40.3331 176.38 40.4351C176.512 40.5311 176.686 40.6091 176.902 40.6691C177.118 40.7291 177.355 40.7891 177.613 40.8491C177.877 40.9091 178.138 40.9781 178.396 41.0561C178.66 41.1341 178.9 41.2391 179.116 41.3711C179.332 41.5031 179.506 41.6771 179.638 41.8931C179.776 42.1091 179.845 42.3821 179.845 42.7121C179.845 43.0661 179.746 43.3901 179.548 43.6841C179.35 43.9781 179.053 44.2151 178.657 44.3951C178.267 44.5751 177.772 44.6651 177.172 44.6651ZM187.71 38.2571H189.168V44.5571H187.71V38.2571ZM184.848 44.5571H183.39V38.2571H184.848V44.5571ZM187.818 41.9741H184.74V40.7411H187.818V41.9741ZM191.999 40.7951H195.032V41.9291H191.999V40.7951ZM192.107 43.3871H195.536V44.5571H190.658V38.2571H195.419V39.4271H192.107V43.3871ZM196.696 44.5571V38.2571H199.423C199.987 38.2571 200.473 38.3501 200.881 38.5361C201.289 38.7161 201.604 38.9771 201.826 39.3191C202.048 39.6611 202.159 40.0691 202.159 40.5431C202.159 41.0111 202.048 41.4161 201.826 41.7581C201.604 42.0941 201.289 42.3521 200.881 42.5321C200.473 42.7121 199.987 42.8021 199.423 42.8021H197.506L198.154 42.1631V44.5571H196.696ZM200.701 44.5571L199.126 42.2711H200.683L202.276 44.5571H200.701ZM198.154 42.3251L197.506 41.6411H199.342C199.792 41.6411 200.128 41.5451 200.35 41.3531C200.572 41.1551 200.683 40.8851 200.683 40.5431C200.683 40.1951 200.572 39.9251 200.35 39.7331C200.128 39.5411 199.792 39.4451 199.342 39.4451H197.506L198.154 38.7521V42.3251ZM204.656 40.7951H207.689V41.9291H204.656V40.7951ZM204.764 43.3871H208.193V44.5571H203.315V38.2571H208.076V39.4271H204.764V43.3871Z" fill="#C7F0FD"/>
</g>
<path d="M54.763 44.8409V0.00439453H32.095H20.1507H7.59618L30.5257 44.4047H19.1045H10.3861V27.2203L0.882965 8.37853V54.0001H23.8997H35.408H47.4395L25.0331 9.59976H36.8901H45.2599V25.9991L54.763 44.8409Z" fill="#C7F0FD"/>
<path d="M14.2219 31.3203V40.3051H23.8994L19.1043 31.3203H14.2219Z" fill="#C7F0FD"/>
<path d="M40.9875 21.6374V12.6526H31.2228L36.1052 21.6374H40.9875Z" fill="#C7F0FD"/>
</svg>
