<svg width="209" height="54" viewBox="0 0 209 54" fill="none" xmlns="http://www.w3.org/2000/svg">
<g opacity="0.7">
<path d="M85.8916 29.9275V19.7035H81.8596V17.3275H92.8396V19.7035H88.8076V29.9275H85.8916ZM97.0906 22.4035H103.157V24.6715H97.0906V22.4035ZM97.3066 27.5875H104.165V29.9275H94.4086V17.3275H103.931V19.6675H97.3066V27.5875ZM112.515 30.1435C111.543 30.1435 110.637 29.9875 109.797 29.6755C108.969 29.3515 108.249 28.8955 107.637 28.3075C107.025 27.7195 106.545 27.0295 106.197 26.2375C105.861 25.4455 105.693 24.5755 105.693 23.6275C105.693 22.6795 105.861 21.8095 106.197 21.0175C106.545 20.2255 107.025 19.5355 107.637 18.9475C108.261 18.3595 108.987 17.9095 109.815 17.5975C110.643 17.2735 111.549 17.1115 112.533 17.1115C113.625 17.1115 114.609 17.3035 115.485 17.6875C116.373 18.0595 117.117 18.6115 117.717 19.3435L115.845 21.0715C115.413 20.5795 114.933 20.2135 114.405 19.9735C113.877 19.7215 113.301 19.5955 112.677 19.5955C112.089 19.5955 111.549 19.6915 111.057 19.8835C110.565 20.0755 110.139 20.3515 109.779 20.7115C109.419 21.0715 109.137 21.4975 108.933 21.9895C108.741 22.4815 108.645 23.0275 108.645 23.6275C108.645 24.2275 108.741 24.7735 108.933 25.2655C109.137 25.7575 109.419 26.1835 109.779 26.5435C110.139 26.9035 110.565 27.1795 111.057 27.3715C111.549 27.5635 112.089 27.6595 112.677 27.6595C113.301 27.6595 113.877 27.5395 114.405 27.2995C114.933 27.0475 115.413 26.6695 115.845 26.1655L117.717 27.8935C117.117 28.6255 116.373 29.1835 115.485 29.5675C114.609 29.9515 113.619 30.1435 112.515 30.1435ZM128.326 17.3275H131.242V29.9275H128.326V17.3275ZM122.602 29.9275H119.686V17.3275H122.602V29.9275ZM128.542 24.7615H122.386V22.2955H128.542V24.7615ZM134.223 29.9275V17.3275H140.379C141.963 17.3275 143.151 17.6275 143.943 18.2275C144.747 18.8275 145.149 19.6195 145.149 20.6035C145.149 21.2635 144.987 21.8395 144.663 22.3315C144.339 22.8115 143.895 23.1835 143.331 23.4475C142.767 23.7115 142.119 23.8435 141.387 23.8435L141.729 23.1055C142.521 23.1055 143.223 23.2375 143.835 23.5015C144.447 23.7535 144.921 24.1315 145.257 24.6355C145.605 25.1395 145.779 25.7575 145.779 26.4895C145.779 27.5695 145.353 28.4155 144.501 29.0275C143.649 29.6275 142.395 29.9275 140.739 29.9275H134.223ZM137.121 27.7315H140.523C141.279 27.7315 141.849 27.6115 142.233 27.3715C142.629 27.1195 142.827 26.7235 142.827 26.1835C142.827 25.6555 142.629 25.2655 142.233 25.0135C141.849 24.7495 141.279 24.6175 140.523 24.6175H136.905V22.4935H140.019C140.727 22.4935 141.267 22.3735 141.639 22.1335C142.023 21.8815 142.215 21.5035 142.215 20.9995C142.215 20.5075 142.023 20.1415 141.639 19.9015C141.267 19.6495 140.727 19.5235 140.019 19.5235H137.121V27.7315ZM147.987 29.9275V17.3275H153.441C154.569 17.3275 155.541 17.5135 156.357 17.8855C157.173 18.2455 157.803 18.7675 158.247 19.4515C158.691 20.1355 158.913 20.9515 158.913 21.8995C158.913 22.8355 158.691 23.6455 158.247 24.3295C157.803 25.0015 157.173 25.5175 156.357 25.8775C155.541 26.2375 154.569 26.4175 153.441 26.4175H149.607L150.903 25.1395V29.9275H147.987ZM155.997 29.9275L152.847 25.3555H155.961L159.147 29.9275H155.997ZM150.903 25.4635L149.607 24.0955H153.279C154.179 24.0955 154.851 23.9035 155.295 23.5195C155.739 23.1235 155.961 22.5835 155.961 21.8995C155.961 21.2035 155.739 20.6635 155.295 20.2795C154.851 19.8955 154.179 19.7035 153.279 19.7035H149.607L150.903 18.3175V25.4635ZM159.567 29.9275L165.183 17.3275H168.063L173.697 29.9275H170.637L166.029 18.8035H167.181L162.555 29.9275H159.567ZM162.375 27.2275L163.149 25.0135H169.629L170.421 27.2275H162.375ZM175.004 29.9275V17.3275H177.416L184.85 26.3995H183.68V17.3275H186.56V29.9275H184.166L176.714 20.8555H177.884V29.9275H175.004ZM189.541 29.9275V17.3275H195.265C196.633 17.3275 197.839 17.5915 198.883 18.1195C199.927 18.6355 200.743 19.3615 201.331 20.2975C201.919 21.2335 202.213 22.3435 202.213 23.6275C202.213 24.8995 201.919 26.0095 201.331 26.9575C200.743 27.8935 199.927 28.6255 198.883 29.1535C197.839 29.6695 196.633 29.9275 195.265 29.9275H189.541ZM192.457 27.5335H195.121C195.961 27.5335 196.687 27.3775 197.299 27.0655C197.923 26.7415 198.403 26.2855 198.739 25.6975C199.087 25.1095 199.261 24.4195 199.261 23.6275C199.261 22.8235 199.087 22.1335 198.739 21.5575C198.403 20.9695 197.923 20.5195 197.299 20.2075C196.687 19.8835 195.961 19.7215 195.121 19.7215H192.457V27.5335Z" fill="#C7F0FD"/>
<path d="M83.2822 44.4524V41.8784L83.6152 42.7604L80.8432 38.1524H82.3912L84.5152 41.6894H83.6242L85.7572 38.1524H87.1882L84.4162 42.7604L84.7402 41.8784V44.4524H83.2822ZM90.5858 44.5604C90.0878 44.5604 89.6258 44.4794 89.1998 44.3174C88.7798 44.1554 88.4138 43.9274 88.1018 43.6334C87.7958 43.3394 87.5558 42.9944 87.3818 42.5984C87.2138 42.2024 87.1298 41.7704 87.1298 41.3024C87.1298 40.8344 87.2138 40.4024 87.3818 40.0064C87.5558 39.6104 87.7988 39.2654 88.1108 38.9714C88.4228 38.6774 88.7888 38.4494 89.2088 38.2874C89.6288 38.1254 90.0848 38.0444 90.5768 38.0444C91.0748 38.0444 91.5308 38.1254 91.9448 38.2874C92.3648 38.4494 92.7278 38.6774 93.0338 38.9714C93.3458 39.2654 93.5888 39.6104 93.7628 40.0064C93.9368 40.3964 94.0238 40.8284 94.0238 41.3024C94.0238 41.7704 93.9368 42.2054 93.7628 42.6074C93.5888 43.0034 93.3458 43.3484 93.0338 43.6424C92.7278 43.9304 92.3648 44.1554 91.9448 44.3174C91.5308 44.4794 91.0778 44.5604 90.5858 44.5604ZM90.5768 43.3184C90.8588 43.3184 91.1168 43.2704 91.3508 43.1744C91.5908 43.0784 91.8008 42.9404 91.9808 42.7604C92.1608 42.5804 92.2988 42.3674 92.3948 42.1214C92.4968 41.8754 92.5478 41.6024 92.5478 41.3024C92.5478 41.0024 92.4968 40.7294 92.3948 40.4834C92.2988 40.2374 92.1608 40.0244 91.9808 39.8444C91.8068 39.6644 91.5998 39.5264 91.3598 39.4304C91.1198 39.3344 90.8588 39.2864 90.5768 39.2864C90.2948 39.2864 90.0338 39.3344 89.7938 39.4304C89.5598 39.5264 89.3528 39.6644 89.1728 39.8444C88.9928 40.0244 88.8518 40.2374 88.7498 40.4834C88.6538 40.7294 88.6058 41.0024 88.6058 41.3024C88.6058 41.5964 88.6538 41.8694 88.7498 42.1214C88.8518 42.3674 88.9898 42.5804 89.1638 42.7604C89.3438 42.9404 89.5538 43.0784 89.7938 43.1744C90.0338 43.2704 90.2948 43.3184 90.5768 43.3184ZM97.9186 44.5604C97.0246 44.5604 96.3256 44.3114 95.8216 43.8134C95.3176 43.3154 95.0656 42.6044 95.0656 41.6804V38.1524H96.5236V41.6264C96.5236 42.2264 96.6466 42.6584 96.8926 42.9224C97.1386 43.1864 97.4836 43.3184 97.9276 43.3184C98.3716 43.3184 98.7166 43.1864 98.9626 42.9224C99.2086 42.6584 99.3316 42.2264 99.3316 41.6264V38.1524H100.772V41.6804C100.772 42.6044 100.52 43.3154 100.016 43.8134C99.5116 44.3114 98.8126 44.5604 97.9186 44.5604ZM102.212 44.4524V38.1524H104.939C105.503 38.1524 105.989 38.2454 106.397 38.4314C106.805 38.6114 107.12 38.8724 107.342 39.2144C107.564 39.5564 107.675 39.9644 107.675 40.4384C107.675 40.9064 107.564 41.3114 107.342 41.6534C107.12 41.9894 106.805 42.2474 106.397 42.4274C105.989 42.6074 105.503 42.6974 104.939 42.6974H103.022L103.67 42.0584V44.4524H102.212ZM106.217 44.4524L104.642 42.1664H106.199L107.792 44.4524H106.217ZM103.67 42.2204L103.022 41.5364H104.858C105.308 41.5364 105.644 41.4404 105.866 41.2484C106.088 41.0504 106.199 40.7804 106.199 40.4384C106.199 40.0904 106.088 39.8204 105.866 39.6284C105.644 39.4364 105.308 39.3404 104.858 39.3404H103.022L103.67 38.6474V42.2204ZM112.684 44.4524V39.3404H110.668V38.1524H116.158V39.3404H114.142V44.4524H112.684ZM115.798 44.4524L118.606 38.1524H120.046L122.863 44.4524H121.333L119.029 38.8904H119.605L117.292 44.4524H115.798ZM117.202 43.1024L117.589 41.9954H120.829L121.225 43.1024H117.202ZM126.471 44.5604C125.973 44.5604 125.514 44.4824 125.094 44.3264C124.68 44.1644 124.317 43.9364 124.005 43.6424C123.699 43.3484 123.459 43.0034 123.285 42.6074C123.117 42.2114 123.033 41.7764 123.033 41.3024C123.033 40.8284 123.117 40.3934 123.285 39.9974C123.459 39.6014 123.702 39.2564 124.014 38.9624C124.326 38.6684 124.692 38.4434 125.112 38.2874C125.532 38.1254 125.994 38.0444 126.498 38.0444C127.056 38.0444 127.557 38.1374 128.001 38.3234C128.451 38.5094 128.829 38.7794 129.135 39.1334L128.199 39.9974C127.971 39.7574 127.722 39.5804 127.452 39.4664C127.182 39.3464 126.888 39.2864 126.57 39.2864C126.264 39.2864 125.985 39.3344 125.733 39.4304C125.481 39.5264 125.262 39.6644 125.076 39.8444C124.896 40.0244 124.755 40.2374 124.653 40.4834C124.557 40.7294 124.509 41.0024 124.509 41.3024C124.509 41.5964 124.557 41.8664 124.653 42.1124C124.755 42.3584 124.896 42.5744 125.076 42.7604C125.262 42.9404 125.478 43.0784 125.724 43.1744C125.976 43.2704 126.252 43.3184 126.552 43.3184C126.84 43.3184 127.119 43.2734 127.389 43.1834C127.665 43.0874 127.932 42.9284 128.19 42.7064L129.018 43.7594C128.676 44.0174 128.277 44.2154 127.821 44.3534C127.371 44.4914 126.921 44.5604 126.471 44.5604ZM127.686 43.5704V41.2034H129.018V43.7594L127.686 43.5704ZM130.372 44.4524V38.1524H131.83V43.2644H134.989V44.4524H130.372ZM135.804 44.4524V38.1524H137.262V44.4524H135.804ZM138.757 44.4524V38.1524H139.963L143.68 42.6884H143.095V38.1524H144.535V44.4524H143.338L139.612 39.9164H140.197V44.4524H138.757ZM147.367 40.6904H150.4V41.8244H147.367V40.6904ZM147.475 43.2824H150.904V44.4524H146.026V38.1524H150.787V39.3224H147.475V43.2824ZM157.655 44.5604C157.157 44.5604 156.698 44.4824 156.278 44.3264C155.864 44.1644 155.501 43.9364 155.189 43.6424C154.883 43.3484 154.643 43.0034 154.469 42.6074C154.301 42.2114 154.217 41.7764 154.217 41.3024C154.217 40.8284 154.301 40.3934 154.469 39.9974C154.643 39.6014 154.886 39.2564 155.198 38.9624C155.51 38.6684 155.876 38.4434 156.296 38.2874C156.716 38.1254 157.178 38.0444 157.682 38.0444C158.24 38.0444 158.741 38.1374 159.185 38.3234C159.635 38.5094 160.013 38.7794 160.319 39.1334L159.383 39.9974C159.155 39.7574 158.906 39.5804 158.636 39.4664C158.366 39.3464 158.072 39.2864 157.754 39.2864C157.448 39.2864 157.169 39.3344 156.917 39.4304C156.665 39.5264 156.446 39.6644 156.26 39.8444C156.08 40.0244 155.939 40.2374 155.837 40.4834C155.741 40.7294 155.693 41.0024 155.693 41.3024C155.693 41.5964 155.741 41.8664 155.837 42.1124C155.939 42.3584 156.08 42.5744 156.26 42.7604C156.446 42.9404 156.662 43.0784 156.908 43.1744C157.16 43.2704 157.436 43.3184 157.736 43.3184C158.024 43.3184 158.303 43.2734 158.573 43.1834C158.849 43.0874 159.116 42.9284 159.374 42.7064L160.202 43.7594C159.86 44.0174 159.461 44.2154 159.005 44.3534C158.555 44.4914 158.105 44.5604 157.655 44.5604ZM158.87 43.5704V41.2034H160.202V43.7594L158.87 43.5704ZM164.616 44.5604C164.118 44.5604 163.656 44.4794 163.23 44.3174C162.81 44.1554 162.444 43.9274 162.132 43.6334C161.826 43.3394 161.586 42.9944 161.412 42.5984C161.244 42.2024 161.16 41.7704 161.16 41.3024C161.16 40.8344 161.244 40.4024 161.412 40.0064C161.586 39.6104 161.829 39.2654 162.141 38.9714C162.453 38.6774 162.819 38.4494 163.239 38.2874C163.659 38.1254 164.115 38.0444 164.607 38.0444C165.105 38.0444 165.561 38.1254 165.975 38.2874C166.395 38.4494 166.758 38.6774 167.064 38.9714C167.376 39.2654 167.619 39.6104 167.793 40.0064C167.967 40.3964 168.054 40.8284 168.054 41.3024C168.054 41.7704 167.967 42.2054 167.793 42.6074C167.619 43.0034 167.376 43.3484 167.064 43.6424C166.758 43.9304 166.395 44.1554 165.975 44.3174C165.561 44.4794 165.108 44.5604 164.616 44.5604ZM164.607 43.3184C164.889 43.3184 165.147 43.2704 165.381 43.1744C165.621 43.0784 165.831 42.9404 166.011 42.7604C166.191 42.5804 166.329 42.3674 166.425 42.1214C166.527 41.8754 166.578 41.6024 166.578 41.3024C166.578 41.0024 166.527 40.7294 166.425 40.4834C166.329 40.2374 166.191 40.0244 166.011 39.8444C165.837 39.6644 165.63 39.5264 165.39 39.4304C165.15 39.3344 164.889 39.2864 164.607 39.2864C164.325 39.2864 164.064 39.3344 163.824 39.4304C163.59 39.5264 163.383 39.6644 163.203 39.8444C163.023 40.0244 162.882 40.2374 162.78 40.4834C162.684 40.7294 162.636 41.0024 162.636 41.3024C162.636 41.5964 162.684 41.8694 162.78 42.1214C162.882 42.3674 163.02 42.5804 163.194 42.7604C163.374 42.9404 163.584 43.0784 163.824 43.1744C164.064 43.2704 164.325 43.3184 164.607 43.3184ZM170.491 40.6904H173.524V41.8244H170.491V40.6904ZM170.599 43.2824H174.028V44.4524H169.15V38.1524H173.911V39.3224H170.599V43.2824ZM177.258 44.5604C176.754 44.5604 176.271 44.4944 175.809 44.3624C175.347 44.2244 174.975 44.0474 174.693 43.8314L175.188 42.7334C175.458 42.9254 175.776 43.0844 176.142 43.2104C176.514 43.3304 176.889 43.3904 177.267 43.3904C177.555 43.3904 177.786 43.3634 177.96 43.3094C178.14 43.2494 178.272 43.1684 178.356 43.0664C178.44 42.9644 178.482 42.8474 178.482 42.7154C178.482 42.5474 178.416 42.4154 178.284 42.3194C178.152 42.2174 177.978 42.1364 177.762 42.0764C177.546 42.0104 177.306 41.9504 177.042 41.8964C176.784 41.8364 176.523 41.7644 176.259 41.6804C176.001 41.5964 175.764 41.4884 175.548 41.3564C175.332 41.2244 175.155 41.0504 175.017 40.8344C174.885 40.6184 174.819 40.3424 174.819 40.0064C174.819 39.6464 174.915 39.3194 175.107 39.0254C175.305 38.7254 175.599 38.4884 175.989 38.3144C176.385 38.1344 176.88 38.0444 177.474 38.0444C177.87 38.0444 178.26 38.0924 178.644 38.1884C179.028 38.2784 179.367 38.4164 179.661 38.6024L179.211 39.7094C178.917 39.5414 178.623 39.4184 178.329 39.3404C178.035 39.2564 177.747 39.2144 177.465 39.2144C177.183 39.2144 176.952 39.2474 176.772 39.3134C176.592 39.3794 176.463 39.4664 176.385 39.5744C176.307 39.6764 176.268 39.7964 176.268 39.9344C176.268 40.0964 176.334 40.2284 176.466 40.3304C176.598 40.4264 176.772 40.5044 176.988 40.5644C177.204 40.6244 177.441 40.6844 177.699 40.7444C177.963 40.8044 178.224 40.8734 178.482 40.9514C178.746 41.0294 178.986 41.1344 179.202 41.2664C179.418 41.3984 179.592 41.5724 179.724 41.7884C179.862 42.0044 179.931 42.2774 179.931 42.6074C179.931 42.9614 179.832 43.2854 179.634 43.5794C179.436 43.8734 179.139 44.1104 178.743 44.2904C178.353 44.4704 177.858 44.5604 177.258 44.5604ZM187.796 38.1524H189.254V44.4524H187.796V38.1524ZM184.934 44.4524H183.476V38.1524H184.934V44.4524ZM187.904 41.8694H184.826V40.6364H187.904V41.8694ZM192.086 40.6904H195.119V41.8244H192.086V40.6904ZM192.194 43.2824H195.623V44.4524H190.745V38.1524H195.506V39.3224H192.194V43.2824ZM196.783 44.4524V38.1524H199.51C200.074 38.1524 200.56 38.2454 200.968 38.4314C201.376 38.6114 201.691 38.8724 201.913 39.2144C202.135 39.5564 202.246 39.9644 202.246 40.4384C202.246 40.9064 202.135 41.3114 201.913 41.6534C201.691 41.9894 201.376 42.2474 200.968 42.4274C200.56 42.6074 200.074 42.6974 199.51 42.6974H197.593L198.241 42.0584V44.4524H196.783ZM200.788 44.4524L199.213 42.1664H200.77L202.363 44.4524H200.788ZM198.241 42.2204L197.593 41.5364H199.429C199.879 41.5364 200.215 41.4404 200.437 41.2484C200.659 41.0504 200.77 40.7804 200.77 40.4384C200.77 40.0904 200.659 39.8204 200.437 39.6284C200.215 39.4364 199.879 39.3404 199.429 39.3404H197.593L198.241 38.6474V42.2204ZM204.742 40.6904H207.775V41.8244H204.742V40.6904ZM204.85 43.2824H208.279V44.4524H203.401V38.1524H208.162V39.3224H204.85V43.2824Z" fill="#C7F0FD"/>
</g>
<path d="M42.0746 0H21.8645L0.969238 53.9955H21.1794L42.0746 0Z" fill="#C7F0FD"/>
<path d="M43.9238 4.80811L33.7844 30.9183L42.7591 53.9958H62.9692L43.9238 4.80811Z" fill="#C7F0FD"/>
<path d="M39.1284 53.9955H29.5371L36.662 46.377L39.1284 53.9955Z" fill="#C7F0FD"/>
</svg>
