<svg width="217" height="54" viewBox="0 0 217 54" fill="none" xmlns="http://www.w3.org/2000/svg">
<g opacity="0.7">
<path d="M93.6853 25.0215V14.7975H89.6533V12.4215H100.633V14.7975H96.6013V25.0215H93.6853ZM104.884 17.4975H110.95V19.7655H104.884V17.4975ZM105.1 22.6815H111.958V25.0215H102.202V12.4215H111.724V14.7615H105.1V22.6815ZM120.308 25.2375C119.336 25.2375 118.43 25.0815 117.59 24.7695C116.762 24.4455 116.042 23.9895 115.43 23.4015C114.818 22.8135 114.338 22.1235 113.99 21.3315C113.654 20.5395 113.486 19.6695 113.486 18.7215C113.486 17.7735 113.654 16.9035 113.99 16.1115C114.338 15.3195 114.818 14.6295 115.43 14.0415C116.054 13.4535 116.78 13.0035 117.608 12.6915C118.436 12.3675 119.342 12.2055 120.326 12.2055C121.418 12.2055 122.402 12.3975 123.278 12.7815C124.166 13.1535 124.91 13.7055 125.51 14.4375L123.638 16.1655C123.206 15.6735 122.726 15.3075 122.198 15.0675C121.67 14.8155 121.094 14.6895 120.47 14.6895C119.882 14.6895 119.342 14.7855 118.85 14.9775C118.358 15.1695 117.932 15.4455 117.572 15.8055C117.212 16.1655 116.93 16.5915 116.726 17.0835C116.534 17.5755 116.438 18.1215 116.438 18.7215C116.438 19.3215 116.534 19.8675 116.726 20.3595C116.93 20.8515 117.212 21.2775 117.572 21.6375C117.932 21.9975 118.358 22.2735 118.85 22.4655C119.342 22.6575 119.882 22.7535 120.47 22.7535C121.094 22.7535 121.67 22.6335 122.198 22.3935C122.726 22.1415 123.206 21.7635 123.638 21.2595L125.51 22.9875C124.91 23.7195 124.166 24.2775 123.278 24.6615C122.402 25.0455 121.412 25.2375 120.308 25.2375ZM136.12 12.4215H139.036V25.0215H136.12V12.4215ZM130.396 25.0215H127.48V12.4215H130.396V25.0215ZM136.336 19.8555H130.18V17.3895H136.336V19.8555ZM142.017 25.0215V12.4215H148.173C149.757 12.4215 150.945 12.7215 151.737 13.3215C152.541 13.9215 152.943 14.7135 152.943 15.6975C152.943 16.3575 152.781 16.9335 152.457 17.4255C152.133 17.9055 151.689 18.2775 151.125 18.5415C150.561 18.8055 149.913 18.9375 149.181 18.9375L149.523 18.1995C150.315 18.1995 151.017 18.3315 151.629 18.5955C152.241 18.8475 152.715 19.2255 153.051 19.7295C153.399 20.2335 153.573 20.8515 153.573 21.5835C153.573 22.6635 153.147 23.5095 152.295 24.1215C151.443 24.7215 150.189 25.0215 148.533 25.0215H142.017ZM144.915 22.8255H148.317C149.073 22.8255 149.643 22.7055 150.027 22.4655C150.423 22.2135 150.621 21.8175 150.621 21.2775C150.621 20.7495 150.423 20.3595 150.027 20.1075C149.643 19.8435 149.073 19.7115 148.317 19.7115H144.699V17.5875H147.813C148.521 17.5875 149.061 17.4675 149.433 17.2275C149.817 16.9755 150.009 16.5975 150.009 16.0935C150.009 15.6015 149.817 15.2355 149.433 14.9955C149.061 14.7435 148.521 14.6175 147.813 14.6175H144.915V22.8255ZM155.78 25.0215V12.4215H161.234C162.362 12.4215 163.334 12.6075 164.15 12.9795C164.966 13.3395 165.596 13.8615 166.04 14.5455C166.484 15.2295 166.706 16.0455 166.706 16.9935C166.706 17.9295 166.484 18.7395 166.04 19.4235C165.596 20.0955 164.966 20.6115 164.15 20.9715C163.334 21.3315 162.362 21.5115 161.234 21.5115H157.4L158.696 20.2335V25.0215H155.78ZM163.79 25.0215L160.64 20.4495H163.754L166.94 25.0215H163.79ZM158.696 20.5575L157.4 19.1895H161.072C161.972 19.1895 162.644 18.9975 163.088 18.6135C163.532 18.2175 163.754 17.6775 163.754 16.9935C163.754 16.2975 163.532 15.7575 163.088 15.3735C162.644 14.9895 161.972 14.7975 161.072 14.7975H157.4L158.696 13.4115V20.5575ZM167.361 25.0215L172.977 12.4215H175.857L181.491 25.0215H178.431L173.823 13.8975H174.975L170.349 25.0215H167.361ZM170.169 22.3215L170.943 20.1075H177.423L178.215 22.3215H170.169ZM182.798 25.0215V12.4215H185.21L192.644 21.4935H191.474V12.4215H194.354V25.0215H191.96L184.508 15.9495H185.678V25.0215H182.798ZM197.335 25.0215V12.4215H203.059C204.427 12.4215 205.633 12.6855 206.677 13.2135C207.721 13.7295 208.537 14.4555 209.125 15.3915C209.713 16.3275 210.007 17.4375 210.007 18.7215C210.007 19.9935 209.713 21.1035 209.125 22.0515C208.537 22.9875 207.721 23.7195 206.677 24.2475C205.633 24.7635 204.427 25.0215 203.059 25.0215H197.335ZM200.251 22.6275H202.915C203.755 22.6275 204.481 22.4715 205.093 22.1595C205.717 21.8355 206.197 21.3795 206.533 20.7915C206.881 20.2035 207.055 19.5135 207.055 18.7215C207.055 17.9175 206.881 17.2275 206.533 16.6515C206.197 16.0635 205.717 15.6135 205.093 15.3015C204.481 14.9775 203.755 14.8155 202.915 14.8155H200.251V22.6275Z" fill="#C7F0FD"/>
<path d="M91.0759 39.5464V36.9724L91.4089 37.8544L88.6369 33.2464H90.1849L92.3089 36.7834H91.4179L93.5509 33.2464H94.9819L92.2099 37.8544L92.5339 36.9724V39.5464H91.0759ZM98.3795 39.6544C97.8815 39.6544 97.4195 39.5734 96.9935 39.4114C96.5735 39.2494 96.2075 39.0214 95.8955 38.7274C95.5895 38.4334 95.3495 38.0884 95.1755 37.6924C95.0075 37.2964 94.9235 36.8644 94.9235 36.3964C94.9235 35.9284 95.0075 35.4964 95.1755 35.1004C95.3495 34.7044 95.5925 34.3594 95.9045 34.0654C96.2165 33.7714 96.5825 33.5434 97.0025 33.3814C97.4225 33.2194 97.8785 33.1384 98.3705 33.1384C98.8685 33.1384 99.3245 33.2194 99.7385 33.3814C100.159 33.5434 100.522 33.7714 100.828 34.0654C101.14 34.3594 101.383 34.7044 101.557 35.1004C101.731 35.4904 101.818 35.9224 101.818 36.3964C101.818 36.8644 101.731 37.2994 101.557 37.7014C101.383 38.0974 101.14 38.4424 100.828 38.7364C100.522 39.0244 100.159 39.2494 99.7385 39.4114C99.3245 39.5734 98.8715 39.6544 98.3795 39.6544ZM98.3705 38.4124C98.6525 38.4124 98.9105 38.3644 99.1445 38.2684C99.3845 38.1724 99.5945 38.0344 99.7745 37.8544C99.9545 37.6744 100.093 37.4614 100.189 37.2154C100.291 36.9694 100.342 36.6964 100.342 36.3964C100.342 36.0964 100.291 35.8234 100.189 35.5774C100.093 35.3314 99.9545 35.1184 99.7745 34.9384C99.6005 34.7584 99.3935 34.6204 99.1535 34.5244C98.9135 34.4284 98.6525 34.3804 98.3705 34.3804C98.0885 34.3804 97.8275 34.4284 97.5875 34.5244C97.3535 34.6204 97.1465 34.7584 96.9665 34.9384C96.7865 35.1184 96.6455 35.3314 96.5435 35.5774C96.4475 35.8234 96.3995 36.0964 96.3995 36.3964C96.3995 36.6904 96.4475 36.9634 96.5435 37.2154C96.6455 37.4614 96.7835 37.6744 96.9575 37.8544C97.1375 38.0344 97.3475 38.1724 97.5875 38.2684C97.8275 38.3644 98.0885 38.4124 98.3705 38.4124ZM105.712 39.6544C104.818 39.6544 104.119 39.4054 103.615 38.9074C103.111 38.4094 102.859 37.6984 102.859 36.7744V33.2464H104.317V36.7204C104.317 37.3204 104.44 37.7524 104.686 38.0164C104.932 38.2804 105.277 38.4124 105.721 38.4124C106.165 38.4124 106.51 38.2804 106.756 38.0164C107.002 37.7524 107.125 37.3204 107.125 36.7204V33.2464H108.565V36.7744C108.565 37.6984 108.313 38.4094 107.809 38.9074C107.305 39.4054 106.606 39.6544 105.712 39.6544ZM110.006 39.5464V33.2464H112.733C113.297 33.2464 113.783 33.3394 114.191 33.5254C114.599 33.7054 114.914 33.9664 115.136 34.3084C115.358 34.6504 115.469 35.0584 115.469 35.5324C115.469 36.0004 115.358 36.4054 115.136 36.7474C114.914 37.0834 114.599 37.3414 114.191 37.5214C113.783 37.7014 113.297 37.7914 112.733 37.7914H110.816L111.464 37.1524V39.5464H110.006ZM114.011 39.5464L112.436 37.2604H113.993L115.586 39.5464H114.011ZM111.464 37.3144L110.816 36.6304H112.652C113.102 36.6304 113.438 36.5344 113.66 36.3424C113.882 36.1444 113.993 35.8744 113.993 35.5324C113.993 35.1844 113.882 34.9144 113.66 34.7224C113.438 34.5304 113.102 34.4344 112.652 34.4344H110.816L111.464 33.7414V37.3144ZM120.478 39.5464V34.4344H118.462V33.2464H123.952V34.4344H121.936V39.5464H120.478ZM123.592 39.5464L126.4 33.2464H127.84L130.657 39.5464H129.127L126.823 33.9844H127.399L125.086 39.5464H123.592ZM124.996 38.1964L125.383 37.0894H128.623L129.019 38.1964H124.996ZM134.265 39.6544C133.767 39.6544 133.308 39.5764 132.888 39.4204C132.474 39.2584 132.111 39.0304 131.799 38.7364C131.493 38.4424 131.253 38.0974 131.079 37.7014C130.911 37.3054 130.827 36.8704 130.827 36.3964C130.827 35.9224 130.911 35.4874 131.079 35.0914C131.253 34.6954 131.496 34.3504 131.808 34.0564C132.12 33.7624 132.486 33.5374 132.906 33.3814C133.326 33.2194 133.788 33.1384 134.292 33.1384C134.85 33.1384 135.351 33.2314 135.795 33.4174C136.245 33.6034 136.623 33.8734 136.929 34.2274L135.993 35.0914C135.765 34.8514 135.516 34.6744 135.246 34.5604C134.976 34.4404 134.682 34.3804 134.364 34.3804C134.058 34.3804 133.779 34.4284 133.527 34.5244C133.275 34.6204 133.056 34.7584 132.87 34.9384C132.69 35.1184 132.549 35.3314 132.447 35.5774C132.351 35.8234 132.303 36.0964 132.303 36.3964C132.303 36.6904 132.351 36.9604 132.447 37.2064C132.549 37.4524 132.69 37.6684 132.87 37.8544C133.056 38.0344 133.272 38.1724 133.518 38.2684C133.77 38.3644 134.046 38.4124 134.346 38.4124C134.634 38.4124 134.913 38.3674 135.183 38.2774C135.459 38.1814 135.726 38.0224 135.984 37.8004L136.812 38.8534C136.47 39.1114 136.071 39.3094 135.615 39.4474C135.165 39.5854 134.715 39.6544 134.265 39.6544ZM135.48 38.6644V36.2974H136.812V38.8534L135.48 38.6644ZM138.166 39.5464V33.2464H139.624V38.3584H142.783V39.5464H138.166ZM143.598 39.5464V33.2464H145.056V39.5464H143.598ZM146.551 39.5464V33.2464H147.757L151.474 37.7824H150.889V33.2464H152.329V39.5464H151.132L147.406 35.0104H147.991V39.5464H146.551ZM155.161 35.7844H158.194V36.9184H155.161V35.7844ZM155.269 38.3764H158.698V39.5464H153.82V33.2464H158.581V34.4164H155.269V38.3764ZM165.448 39.6544C164.95 39.6544 164.491 39.5764 164.071 39.4204C163.657 39.2584 163.294 39.0304 162.982 38.7364C162.676 38.4424 162.436 38.0974 162.262 37.7014C162.094 37.3054 162.01 36.8704 162.01 36.3964C162.01 35.9224 162.094 35.4874 162.262 35.0914C162.436 34.6954 162.679 34.3504 162.991 34.0564C163.303 33.7624 163.669 33.5374 164.089 33.3814C164.509 33.2194 164.971 33.1384 165.475 33.1384C166.033 33.1384 166.534 33.2314 166.978 33.4174C167.428 33.6034 167.806 33.8734 168.112 34.2274L167.176 35.0914C166.948 34.8514 166.699 34.6744 166.429 34.5604C166.159 34.4404 165.865 34.3804 165.547 34.3804C165.241 34.3804 164.962 34.4284 164.71 34.5244C164.458 34.6204 164.239 34.7584 164.053 34.9384C163.873 35.1184 163.732 35.3314 163.63 35.5774C163.534 35.8234 163.486 36.0964 163.486 36.3964C163.486 36.6904 163.534 36.9604 163.63 37.2064C163.732 37.4524 163.873 37.6684 164.053 37.8544C164.239 38.0344 164.455 38.1724 164.701 38.2684C164.953 38.3644 165.229 38.4124 165.529 38.4124C165.817 38.4124 166.096 38.3674 166.366 38.2774C166.642 38.1814 166.909 38.0224 167.167 37.8004L167.995 38.8534C167.653 39.1114 167.254 39.3094 166.798 39.4474C166.348 39.5854 165.898 39.6544 165.448 39.6544ZM166.663 38.6644V36.2974H167.995V38.8534L166.663 38.6644ZM172.41 39.6544C171.912 39.6544 171.45 39.5734 171.024 39.4114C170.604 39.2494 170.238 39.0214 169.926 38.7274C169.62 38.4334 169.38 38.0884 169.206 37.6924C169.038 37.2964 168.954 36.8644 168.954 36.3964C168.954 35.9284 169.038 35.4964 169.206 35.1004C169.38 34.7044 169.623 34.3594 169.935 34.0654C170.247 33.7714 170.613 33.5434 171.033 33.3814C171.453 33.2194 171.909 33.1384 172.401 33.1384C172.899 33.1384 173.355 33.2194 173.769 33.3814C174.189 33.5434 174.552 33.7714 174.858 34.0654C175.17 34.3594 175.413 34.7044 175.587 35.1004C175.761 35.4904 175.848 35.9224 175.848 36.3964C175.848 36.8644 175.761 37.2994 175.587 37.7014C175.413 38.0974 175.17 38.4424 174.858 38.7364C174.552 39.0244 174.189 39.2494 173.769 39.4114C173.355 39.5734 172.902 39.6544 172.41 39.6544ZM172.401 38.4124C172.683 38.4124 172.941 38.3644 173.175 38.2684C173.415 38.1724 173.625 38.0344 173.805 37.8544C173.985 37.6744 174.123 37.4614 174.219 37.2154C174.321 36.9694 174.372 36.6964 174.372 36.3964C174.372 36.0964 174.321 35.8234 174.219 35.5774C174.123 35.3314 173.985 35.1184 173.805 34.9384C173.631 34.7584 173.424 34.6204 173.184 34.5244C172.944 34.4284 172.683 34.3804 172.401 34.3804C172.119 34.3804 171.858 34.4284 171.618 34.5244C171.384 34.6204 171.177 34.7584 170.997 34.9384C170.817 35.1184 170.676 35.3314 170.574 35.5774C170.478 35.8234 170.43 36.0964 170.43 36.3964C170.43 36.6904 170.478 36.9634 170.574 37.2154C170.676 37.4614 170.814 37.6744 170.988 37.8544C171.168 38.0344 171.378 38.1724 171.618 38.2684C171.858 38.3644 172.119 38.4124 172.401 38.4124ZM178.285 35.7844H181.318V36.9184H178.285V35.7844ZM178.393 38.3764H181.822V39.5464H176.944V33.2464H181.705V34.4164H178.393V38.3764ZM185.052 39.6544C184.548 39.6544 184.065 39.5884 183.603 39.4564C183.141 39.3184 182.769 39.1414 182.487 38.9254L182.982 37.8274C183.252 38.0194 183.57 38.1784 183.936 38.3044C184.308 38.4244 184.683 38.4844 185.061 38.4844C185.349 38.4844 185.58 38.4574 185.754 38.4034C185.934 38.3434 186.066 38.2624 186.15 38.1604C186.234 38.0584 186.276 37.9414 186.276 37.8094C186.276 37.6414 186.21 37.5094 186.078 37.4134C185.946 37.3114 185.772 37.2304 185.556 37.1704C185.34 37.1044 185.1 37.0444 184.836 36.9904C184.578 36.9304 184.317 36.8584 184.053 36.7744C183.795 36.6904 183.558 36.5824 183.342 36.4504C183.126 36.3184 182.949 36.1444 182.811 35.9284C182.679 35.7124 182.613 35.4364 182.613 35.1004C182.613 34.7404 182.709 34.4134 182.901 34.1194C183.099 33.8194 183.393 33.5824 183.783 33.4084C184.179 33.2284 184.674 33.1384 185.268 33.1384C185.664 33.1384 186.054 33.1864 186.438 33.2824C186.822 33.3724 187.161 33.5104 187.455 33.6964L187.005 34.8034C186.711 34.6354 186.417 34.5124 186.123 34.4344C185.829 34.3504 185.541 34.3084 185.259 34.3084C184.977 34.3084 184.746 34.3414 184.566 34.4074C184.386 34.4734 184.257 34.5604 184.179 34.6684C184.101 34.7704 184.062 34.8904 184.062 35.0284C184.062 35.1904 184.128 35.3224 184.26 35.4244C184.392 35.5204 184.566 35.5984 184.782 35.6584C184.998 35.7184 185.235 35.7784 185.493 35.8384C185.757 35.8984 186.018 35.9674 186.276 36.0454C186.54 36.1234 186.78 36.2284 186.996 36.3604C187.212 36.4924 187.386 36.6664 187.518 36.8824C187.656 37.0984 187.725 37.3714 187.725 37.7014C187.725 38.0554 187.626 38.3794 187.428 38.6734C187.23 38.9674 186.933 39.2044 186.537 39.3844C186.147 39.5644 185.652 39.6544 185.052 39.6544ZM195.59 33.2464H197.048V39.5464H195.59V33.2464ZM192.728 39.5464H191.27V33.2464H192.728V39.5464ZM195.698 36.9634H192.62V35.7304H195.698V36.9634ZM199.879 35.7844H202.912V36.9184H199.879V35.7844ZM199.987 38.3764H203.416V39.5464H198.538V33.2464H203.299V34.4164H199.987V38.3764ZM204.576 39.5464V33.2464H207.303C207.867 33.2464 208.353 33.3394 208.761 33.5254C209.169 33.7054 209.484 33.9664 209.706 34.3084C209.928 34.6504 210.039 35.0584 210.039 35.5324C210.039 36.0004 209.928 36.4054 209.706 36.7474C209.484 37.0834 209.169 37.3414 208.761 37.5214C208.353 37.7014 207.867 37.7914 207.303 37.7914H205.386L206.034 37.1524V39.5464H204.576ZM208.581 39.5464L207.006 37.2604H208.563L210.156 39.5464H208.581ZM206.034 37.3144L205.386 36.6304H207.222C207.672 36.6304 208.008 36.5344 208.23 36.3424C208.452 36.1444 208.563 35.8744 208.563 35.5324C208.563 35.1844 208.452 34.9144 208.23 34.7224C208.008 34.5304 207.672 34.4344 207.222 34.4344H205.386L206.034 33.7414V37.3144ZM212.536 35.7844H215.569V36.9184H212.536V35.7844ZM212.644 38.3764H216.073V39.5464H211.195V33.2464H215.956V34.4164H212.644V38.3764Z" fill="#C7F0FD"/>
</g>
<path d="M67.6874 35.9178C66.7647 35.9178 65.965 36.3573 65.473 37.048L60.552 35.2272C61.3517 32.653 61.8438 29.8276 61.8438 26.9395C61.8438 17.2077 56.7998 8.7316 49.2954 3.95989L46.4659 10.0501C51.8174 13.6917 55.3236 19.9075 55.3236 26.9395C55.3236 29.0114 55.016 31.0205 54.4624 32.9041L49.4185 31.0833C49.7875 29.7648 49.9721 28.3835 49.9721 26.9395C49.9721 21.1004 46.6505 16.0775 41.9141 13.6289C41.7295 14.3195 41.4835 14.9474 41.299 15.638C40.9914 16.5798 40.6838 17.5844 40.3763 18.589C43.1443 20.2842 45.0512 23.4235 45.0512 26.9395C45.0512 27.7557 44.9281 28.5719 44.7436 29.3253L39.6382 27.4417C39.6382 27.2534 39.6997 27.065 39.6997 26.9395C39.6997 24.5536 37.7928 22.67 35.5169 22.67C34.0406 22.67 32.7489 23.4862 31.9492 24.6792L26.8438 22.7956C28.3816 19.468 31.6417 17.2077 35.4554 17.2077C36.8086 17.2077 38.1004 17.5216 39.2691 18.0239C39.6997 17.1449 40.1302 16.2659 40.5608 15.3869C40.8684 14.759 41.1759 14.0684 41.4835 13.4405C39.6382 12.6243 37.6083 12.122 35.5169 12.122C29.5503 12.122 24.3833 15.8264 22.1689 21.0376L17.125 19.2168C20.139 11.8709 27.2129 6.65967 35.5169 6.65967C37.3622 6.65967 39.1461 6.91081 40.8684 7.4131L42.9598 1.07175C40.6223 0.381107 38.1004 0.00439453 35.5169 0.00439453C24.3833 0.00439453 14.8491 7.03639 10.9738 16.9565L6.54501 15.3241V15.2613C6.54501 13.6289 5.25327 12.3104 3.65397 12.3104C2.05468 12.3104 0.762939 13.6289 0.762939 15.2613C0.762939 16.8937 2.05468 18.2122 3.65397 18.2122C4.57665 18.2122 5.37629 17.7727 5.86838 17.0821L10.2972 18.7145C9.49756 21.2887 9.00547 24.1141 9.00547 27.0022C9.00547 38.492 16.0178 48.2866 25.9211 52.1793L28.0125 45.838C20.6926 42.8242 15.5257 35.5411 15.5257 27.0022C15.5257 24.9303 15.8332 22.9212 16.3868 21.0376L21.4308 22.8584C21.0617 24.1769 20.8772 25.5582 20.8772 27.0022C20.8772 32.653 24.0143 37.613 28.5661 40.1245C29.1812 38.8687 29.7963 37.613 30.473 36.2945C30.596 36.0434 30.719 35.7922 30.842 35.6039C27.8895 33.9087 25.9211 30.7694 25.9211 27.065C25.9211 26.2488 26.0441 25.4326 26.2287 24.6792L31.3341 26.5627C31.3341 26.7511 31.2726 26.9395 31.2726 27.065C31.2726 29.4509 33.1795 31.3345 35.4554 31.3345C36.9317 31.3345 38.2234 30.5182 39.023 29.3253L44.1285 31.2089C42.5907 34.5365 39.3306 36.7968 35.5169 36.7968C35.2093 36.7968 34.9633 36.7968 34.6557 36.734C34.5327 37.1107 34.4097 37.4874 34.2867 37.8642C33.8561 39.1827 33.487 40.4384 33.1179 41.6941C33.9176 41.8197 34.6557 41.8824 35.5169 41.8824C41.4835 41.8824 46.6505 38.1781 48.8649 32.9669L53.9088 34.7877C50.8947 42.1336 43.8209 47.3448 35.5169 47.3448C33.4255 47.3448 31.4571 47.0309 29.6118 46.403L26.7823 52.4932C29.5503 53.4978 32.5028 54.0001 35.5169 54.0001C46.6505 54.0001 56.1847 46.9681 60.0599 37.048L64.9809 38.8687V38.9315C64.9809 40.564 66.2726 41.8824 67.8719 41.8824C69.4712 41.8824 70.7629 40.564 70.7629 38.9315C70.7629 37.2991 69.2252 35.9178 67.6874 35.9178Z" fill="#C7F0FD"/>
</svg>
